<?xml version="1.0" encoding="utf-8"?>
<!-- Generator: Adobe Illustrator 27.0.1, SVG Export Plug-In . SVG Version: 6.00 Build 0)  -->
<svg version="1.1" id="Layer_1" xmlns="http://www.w3.org/2000/svg" xmlns:xlink="http://www.w3.org/1999/xlink" x="0px" y="0px"
	 width="122px" height="26.5px" viewBox="0 0 122 26.5" style="enable-background:new 0 0 122 26.5;" xml:space="preserve">
<style type="text/css">
	.st0{fill:#1D1F23;}
	.st1{fill:#131417;}
</style>
<path class="st0" d="M22.7,21.8l-6.5-3L15.8,26l-3.5-6.2l-4.6,5.5l0.9-7.1L1.7,20l4.9-5.2L-0.1,12l7-1.4l-3.8-6l6.5,3L10,0.5
	l3.5,6.2l4.6-5.5l-0.9,7.1l6.9-1.8l-4.9,5.2l6.6,2.6l-7,1.4L22.7,21.8z"/>
<path class="st1" d="M33.1,5.4h10v1.9H35v5h6.7v1.9H35v5.3h8.1v1.9h-10V5.4z M40.7,0h-1.6l-1.4,3.6h1.6L40.7,0z M55.8,18.1l-6-12.6
	H48v15.8h1.9V9.7l5.4,11.5h1l5.4-11.5v11.5h1.9V5.4h-1.8L55.8,18.1z M68.8,21.3h10v-1.9h-8.1v-5.3h6.7v-1.9h-6.7v-5h8.1V5.4h-10
	V21.3z M92.3,15l3.1,6.3h-2.2l-2.8-5.9h-4.6v5.9h-2V5.4h6.3c0.2,0,0.3,0,0.5,0s0.4,0,0.6,0.1c0.9,0.1,1.6,0.4,2.2,0.9s1,1,1.3,1.7
	s0.4,1.5,0.4,2.3c0,1.2-0.3,2.3-1,3.2C93.6,14.2,93,14.7,92.3,15z M89.8,13.6c0.1,0,0.3,0,0.5,0s0.3,0,0.5-0.1
	c0.5-0.1,0.9-0.3,1.2-0.6c0.3-0.3,0.6-0.7,0.7-1.1s0.2-0.9,0.2-1.3c0-0.4-0.1-0.9-0.2-1.3S92.4,8.3,92.1,8s-0.7-0.5-1.2-0.6
	c-0.2,0-0.3-0.1-0.5-0.1s-0.3,0-0.5,0h-4.2v6.3H89.8z M100.2,21.3h2V5.4h-2V21.3z M117.4,18.7c-0.8,0.7-1.9,1-3.3,1
	c-1.2,0-2.2-0.3-3-0.8s-1.4-1.3-1.8-2.2c-0.4-1-0.6-2.1-0.6-3.3c0-1.3,0.2-2.4,0.6-3.3c0.4-1,1-1.7,1.8-2.2s1.8-0.8,2.9-0.8
	c1.3,0,2.4,0.3,3.3,1c0.8,0.7,1.4,1.6,1.7,2.8l2-0.5c-0.4-1.6-1.3-2.8-2.4-3.8c-1.2-0.9-2.7-1.4-4.5-1.4c-1.6,0-2.9,0.3-4,1
	s-1.9,1.7-2.5,2.9s-0.9,2.7-0.9,4.3s0.3,3.1,0.9,4.3s1.4,2.2,2.5,2.9c1.1,0.7,2.4,1,4,1c1.8,0,3.3-0.5,4.5-1.4s2-2.2,2.4-3.8l-2-0.5
	C118.8,17.1,118.2,18,117.4,18.7z"/>
</svg>
