<?xml version="1.0" standalone="no"?>
<!DOCTYPE svg PUBLIC "-//W3C//DTD SVG 20010904//EN"
 "http://www.w3.org/TR/2001/REC-SVG-20010904/DTD/svg10.dtd">
<svg version="1.0" xmlns="http://www.w3.org/2000/svg"
 width="5000.000000pt" height="3980.000000pt" viewBox="0 0 5000.000000 3980.000000"
 preserveAspectRatio="xMidYMid meet">

<g transform="translate(0.000000,3980.000000) scale(0.100000,-0.100000)"
fill="#ec1c24" stroke="none">
<path d="M20725 39249 c-1617 -598 -3042 -1470 -4295 -2629 -359 -332 -666
-651 -1026 -1065 -349 -403 -733 -923 -1099 -1490 -115 -178 -175 -383 -175
-598 0 -183 10 -226 145 -612 95 -270 175 -501 259 -745 30 -85 89 -254 131
-375 42 -121 94 -269 115 -330 61 -176 188 -540 232 -665 22 -63 46 -133 53
-155 7 -22 41 -119 75 -215 34 -96 88 -251 120 -345 53 -152 97 -280 217 -620
19 -55 43 -125 53 -155 10 -30 46 -134 80 -230 34 -96 68 -193 75 -215 7 -22
41 -119 75 -215 34 -96 70 -200 80 -230 10 -30 46 -134 80 -230 34 -96 68
-193 75 -215 7 -22 41 -119 75 -215 34 -96 70 -200 80 -230 18 -56 41 -122
150 -430 34 -96 70 -200 80 -230 10 -30 46 -134 80 -230 34 -96 68 -193 75
-215 7 -22 41 -119 75 -215 34 -96 70 -200 80 -230 10 -30 46 -134 80 -230 34
-96 68 -193 75 -215 7 -22 41 -119 75 -215 34 -96 68 -193 75 -215 7 -22 43
-125 80 -230 37 -104 72 -208 80 -230 7 -22 43 -125 80 -230 36 -104 72 -208
80 -230 7 -22 41 -119 75 -215 34 -96 68 -193 75 -215 7 -22 47 -137 88 -255
156 -446 250 -716 257 -740 5 -14 36 -101 68 -195 95 -270 223 -636 237 -680
8 -22 42 -119 75 -215 34 -96 70 -200 80 -230 10 -30 47 -134 80 -230 34 -96
68 -193 76 -215 7 -22 41 -119 74 -215 34 -96 70 -200 80 -230 10 -30 46 -134
80 -230 95 -270 175 -499 265 -760 30 -85 80 -231 113 -325 33 -93 99 -282
146 -420 48 -137 105 -302 127 -365 71 -202 150 -427 234 -670 20 -58 54 -154
75 -215 21 -60 57 -163 80 -227 22 -65 58 -169 80 -230 21 -62 55 -160 75
-218 20 -58 54 -154 75 -215 38 -107 82 -233 155 -445 73 -212 117 -338 155
-445 21 -60 55 -157 76 -215 20 -58 37 -106 39 -108 4 -5 269 136 469 250 372
213 678 412 1020 662 154 113 528 406 621 487 17 15 81 71 144 125 267 229
730 677 1032 999 414 441 977 1138 1359 1684 l94 134 19 -24 c20 -26 187 -257
215 -299 32 -48 357 -476 451 -595 358 -451 742 -880 1141 -1277 330 -328 522
-505 840 -773 190 -160 550 -439 725 -561 305 -213 563 -378 820 -526 231
-133 505 -278 526 -278 9 0 20 16 26 38 6 20 39 116 73 212 34 96 70 200 80
230 19 57 47 138 150 430 34 96 70 200 80 230 10 30 46 134 80 230 34 96 68
193 75 215 15 44 63 182 155 445 34 96 68 193 75 215 14 42 133 384 235 675
33 96 67 193 75 215 7 22 49 144 93 270 44 127 115 329 157 450 42 121 94 270
115 330 21 61 77 223 125 360 47 138 104 301 126 362 41 119 51 147 234 673
18 52 51 147 73 210 23 63 60 169 83 235 22 66 59 172 81 235 22 63 55 158 73
210 18 52 51 147 73 210 23 63 60 169 82 235 84 242 109 312 148 425 23 63 60
169 83 235 22 66 59 172 81 235 22 63 55 158 73 210 18 52 51 147 73 210 23
63 57 162 77 220 20 58 54 155 75 215 63 182 127 365 230 660 22 66 59 172 82
235 22 63 55 158 73 210 18 52 51 147 73 210 46 133 104 301 162 468 23 64 56
160 75 212 18 52 51 148 74 213 73 211 120 345 160 460 21 61 73 211 116 332
42 121 93 270 115 330 35 100 173 498 367 1055 41 118 92 265 113 325 21 61
63 182 94 270 30 88 83 239 117 335 33 96 69 200 79 230 10 30 37 107 60 170
22 63 56 160 75 215 19 55 62 179 95 275 122 349 142 406 155 445 8 22 34 99
60 170 25 72 70 200 99 285 30 85 89 254 131 375 81 234 103 297 239 690 81
233 115 331 201 575 140 395 155 458 155 645 0 248 -52 412 -211 660 -327 512
-709 1022 -1140 1520 -249 288 -756 806 -1034 1056 -519 467 -999 840 -1550
1204 -254 168 -630 399 -790 485 -44 23 -94 51 -111 61 -88 53 -580 302 -774
392 -239 110 -607 265 -815 342 -49 19 -115 43 -145 55 -122 47 -192 67 -196
56 -2 -6 -11 -51 -20 -101 -56 -308 -189 -711 -337 -1015 -219 -452 -489 -829
-847 -1183 -266 -263 -510 -453 -820 -639 -158 -95 -431 -230 -570 -283 -19
-8 -60 -23 -90 -35 -204 -79 -489 -159 -725 -204 -244 -47 -376 -59 -711 -63
-331 -5 -434 0 -674 32 -617 83 -1254 326 -1770 676 -168 114 -194 133 -302
220 -398 323 -735 711 -997 1149 -77 129 -246 472 -296 599 -100 257 -205 627
-231 814 -3 26 -9 47 -13 46 -3 -1 -78 -28 -166 -60z m8604 -2069 c28 -1521
25 -2677 -9 -3470 -20 -439 -54 -1020 -70 -1170 -5 -52 -14 -165 -20 -250 -6
-85 -15 -186 -20 -225 -5 -38 -12 -106 -15 -150 -3 -44 -12 -138 -21 -210 -8
-71 -26 -233 -39 -360 -67 -608 -192 -1454 -310 -2085 -72 -387 -95 -505 -140
-715 -14 -66 -32 -151 -40 -190 -83 -396 -231 -1009 -345 -1430 -12 -44 -30
-111 -40 -150 -10 -38 -53 -189 -95 -335 -42 -146 -81 -281 -86 -300 -6 -19
-16 -53 -23 -75 -8 -22 -26 -80 -41 -130 -130 -430 -344 -1055 -562 -1635 -39
-104 -207 -523 -269 -670 -31 -74 -64 -156 -74 -181 -22 -55 -241 -548 -299
-674 -110 -235 -178 -376 -337 -690 -94 -187 -202 -396 -239 -465 -37 -69 -83
-154 -103 -190 -65 -121 -344 -604 -430 -745 -47 -77 -100 -164 -117 -193 -88
-145 -481 -732 -490 -731 -5 0 -58 73 -116 162 -59 89 -154 234 -211 322 -84
127 -224 350 -287 455 -38 62 -244 413 -261 445 -13 22 -34 60 -48 85 -14 25
-51 91 -84 148 -32 57 -58 105 -58 107 0 2 -17 34 -38 72 -93 164 -421 811
-511 1006 -47 102 -90 194 -132 283 -34 73 -195 437 -254 574 -56 129 -142
339 -221 540 -176 444 -244 625 -402 1075 -92 262 -315 950 -373 1155 -30 106
-46 160 -74 255 -15 50 -33 113 -40 140 -7 28 -25 93 -40 145 -15 52 -35 127
-45 165 -10 39 -31 115 -45 170 -52 196 -126 493 -175 705 -28 118 -57 242
-65 275 -8 33 -24 105 -35 160 -12 55 -28 127 -36 160 -14 60 -38 175 -55 270
-5 28 -16 79 -24 115 -27 124 -113 578 -145 770 -6 36 -20 117 -31 180 -19
108 -28 167 -79 495 -140 903 -272 2168 -310 2970 -5 116 -14 282 -20 370 -13
201 -29 780 -37 1340 -6 393 3 1296 27 2743 9 533 20 694 33 491 29 -448 169
-1408 282 -1939 88 -412 165 -742 236 -1010 22 -85 45 -171 49 -190 26 -105
179 -622 256 -865 65 -207 274 -814 324 -945 12 -30 38 -102 60 -160 21 -58
43 -116 48 -130 6 -14 58 -144 116 -290 136 -342 198 -492 301 -725 7 -16 27
-64 45 -105 18 -41 52 -117 76 -168 24 -52 44 -95 44 -97 0 -4 42 -94 205
-440 59 -126 366 -740 430 -860 171 -322 221 -414 333 -615 222 -400 473 -825
737 -1250 249 -401 632 -981 651 -987 9 -2 65 80 296 432 171 261 198 303 333
520 64 105 128 206 140 225 151 232 622 1053 836 1457 29 54 70 132 92 173 62
114 395 779 459 915 31 66 84 178 117 248 34 71 61 130 61 132 0 2 23 51 50
110 28 59 50 109 50 111 0 2 18 43 40 90 22 47 40 88 40 90 0 2 9 23 19 47 29
63 111 255 136 317 13 30 50 123 84 205 34 83 85 209 112 280 28 72 61 157 74
190 35 88 104 274 120 320 8 22 25 72 40 110 73 199 193 555 270 800 26 83 53
168 60 190 8 22 26 81 40 130 15 50 31 101 35 115 5 14 23 77 40 140 17 63 35
126 40 140 5 14 29 104 55 200 25 96 52 200 60 230 8 30 35 141 60 245 25 105
50 208 55 230 27 111 54 241 120 565 109 541 200 1167 250 1725 11 121 21 224
22 230 3 23 17 -515 27 -1065z"/>
<path d="M24964 18378 c-231 -292 -530 -642 -791 -925 -128 -138 -577 -591
-708 -714 -180 -168 -372 -338 -550 -486 -49 -42 -102 -85 -116 -98 -46 -40
-262 -209 -369 -290 -58 -43 -130 -97 -160 -120 -30 -22 -84 -61 -120 -86 -36
-25 -90 -63 -120 -84 -136 -95 -389 -260 -545 -355 -93 -57 -180 -109 -192
-117 -33 -19 -29 -27 20 -41 44 -13 75 -23 222 -67 227 -68 583 -159 820 -210
66 -14 149 -32 185 -40 122 -27 446 -84 645 -115 352 -54 544 -75 1045 -116
250 -21 1193 -30 1465 -15 270 15 598 39 680 51 39 5 102 12 140 15 232 20
881 124 1185 190 225 49 249 55 376 85 155 38 437 113 554 147 47 14 105 31
130 38 76 21 155 48 162 54 4 4 -54 43 -130 88 -75 45 -157 95 -182 111 -469
304 -703 469 -1045 741 -506 400 -926 785 -1420 1301 -164 171 -374 405 -566
630 -122 143 -440 536 -461 570 -7 11 -16 20 -20 20 -3 0 -64 -73 -134 -162z"/>
<path d="M13285 9529 c-300 -14 -583 -63 -895 -154 -414 -120 -885 -386 -1230
-696 -683 -611 -1049 -1350 -1110 -2239 -59 -861 156 -1638 629 -2265 244
-325 580 -633 930 -855 590 -374 1330 -554 2104 -512 709 40 1253 217 1795
584 302 205 671 571 883 877 298 429 471 885 546 1436 26 187 26 744 0 930
-100 726 -372 1299 -868 1827 -545 581 -1225 930 -2026 1038 -127 18 -500 42
-573 38 -14 0 -97 -5 -185 -9z m475 -1279 c367 -45 711 -187 1025 -423 171
-129 383 -366 508 -567 98 -159 202 -411 247 -596 145 -607 19 -1231 -355
-1746 -77 -107 -316 -347 -425 -427 -641 -473 -1463 -551 -2175 -206 -533 257
-939 743 -1099 1312 -62 221 -71 288 -71 568 0 232 3 272 23 375 82 408 229
708 500 1022 312 362 821 632 1296 687 104 12 429 13 526 1z"/>
<path d="M9590 9495 c-770 -115 -1392 -426 -1934 -968 -471 -472 -769 -1021
-892 -1644 -43 -223 -56 -358 -61 -653 -4 -259 -2 -317 16 -475 74 -620 268
-1115 622 -1588 176 -234 468 -523 704 -697 470 -345 971 -547 1557 -629 82
-12 164 -21 183 -21 l35 0 0 638 0 638 -112 26 c-193 44 -280 74 -453 157
-231 111 -386 221 -576 410 -324 324 -522 715 -595 1176 -25 154 -25 450 0
605 73 463 270 855 591 1175 225 225 446 369 752 489 51 20 97 36 101 36 5 0
38 8 73 19 35 10 99 26 142 36 l77 17 0 639 0 639 -37 -1 c-21 -1 -108 -11
-193 -24z"/>
<path d="M20224 9449 c-423 -32 -867 -172 -1229 -387 -493 -293 -935 -801
-1168 -1342 -16 -36 -33 -74 -38 -85 -26 -57 -93 -261 -124 -381 -86 -328
-119 -605 -119 -979 1 -283 19 -490 63 -720 117 -603 358 -1092 754 -1525 329
-361 713 -615 1147 -760 346 -116 635 -160 1050 -160 382 0 641 35 940 127
519 161 941 455 1279 890 l56 73 3 -313 c5 -469 -23 -751 -103 -1042 -49 -176
-76 -250 -144 -390 -201 -410 -519 -684 -954 -820 -363 -113 -808 -135 -1202
-59 -240 46 -486 128 -733 245 -46 21 -86 39 -88 39 -2 0 -54 28 -116 61 -292
159 -577 348 -861 571 -49 39 -90 68 -91 66 -2 -1 -21 -28 -42 -59 -22 -31
-75 -106 -119 -168 -104 -146 -335 -468 -463 -649 -56 -79 -102 -146 -102
-150 0 -24 401 -335 575 -446 33 -21 76 -49 95 -61 155 -101 481 -270 671
-349 579 -239 1177 -356 1829 -356 861 0 1534 214 2105 669 299 238 530 524
687 851 198 412 299 792 370 1395 22 179 22 193 25 3133 l3 2952 -667 -2 -668
-3 -5 -480 -5 -480 -44 60 c-445 602 -1123 970 -1907 1035 -136 11 -511 11
-660 -1z m906 -1264 c497 -55 917 -258 1256 -606 389 -401 592 -926 570 -1479
-6 -171 -16 -252 -46 -381 -172 -742 -738 -1322 -1478 -1515 -126 -32 -371
-64 -497 -64 -126 0 -371 32 -497 64 -305 80 -614 242 -835 438 -660 587 -873
1511 -533 2316 286 674 918 1143 1655 1226 163 18 246 19 405 1z"/>
<path d="M28715 9445 c-147 -26 -235 -48 -378 -96 -388 -129 -714 -337 -1043
-664 -328 -327 -572 -641 -784 -1009 -69 -121 -220 -423 -249 -501 -11 -27
-28 -68 -38 -90 -18 -39 -18 -15 -23 1095 l-5 1135 -667 3 -668 2 0 -3225 0
-3225 668 2 667 3 5 1275 c5 1111 8 1287 22 1365 92 518 356 979 814 1425 199
194 424 376 609 494 33 21 76 49 95 61 171 110 440 235 665 310 122 41 322 92
393 101 l52 7 0 773 0 774 -32 -1 c-18 -1 -64 -7 -103 -14z"/>
<path d="M31957 9449 c-178 -12 -462 -63 -652 -116 -581 -162 -1054 -441
-1496 -882 -206 -206 -378 -426 -513 -656 -235 -401 -371 -825 -422 -1310 -20
-192 -22 -546 -5 -730 75 -803 387 -1464 958 -2030 715 -709 1631 -1042 2712
-986 312 16 514 47 791 122 556 152 1048 439 1470 859 305 303 535 629 692
981 48 107 62 144 110 279 75 211 132 481 160 750 16 160 16 578 -1 740 -47
468 -189 919 -408 1297 -224 390 -597 797 -983 1073 -497 355 -1084 565 -1710
610 -154 11 -543 11 -703 -1z m560 -1265 c511 -54 945 -263 1293 -621 239
-245 378 -472 500 -813 34 -95 77 -297 90 -420 12 -122 12 -339 0 -460 -88
-835 -687 -1550 -1495 -1785 -596 -172 -1237 -75 -1746 265 -238 159 -479 408
-626 645 -307 496 -392 1117 -231 1680 114 398 350 761 667 1027 310 260 682
424 1069 473 233 29 285 30 479 9z"/>
<path d="M46495 9450 c-214 -16 -538 -84 -737 -155 -113 -41 -119 -43 -262
-109 -350 -163 -689 -443 -945 -781 -30 -38 -57 -71 -62 -73 -5 -2 -9 213 -9
492 l0 496 -665 0 -665 0 0 -4375 0 -4375 665 0 665 0 0 1645 c0 940 4 1645 9
1645 5 0 28 -26 52 -57 72 -98 129 -164 234 -271 544 -562 1276 -829 2190
-797 791 27 1437 293 1979 815 492 473 813 1073 950 1775 53 272 60 361 60
780 1 474 -10 575 -101 960 -186 785 -705 1521 -1374 1950 -372 238 -853 396
-1324 435 -132 11 -519 11 -660 0z m208 -1265 c353 -38 666 -149 955 -338 417
-274 739 -718 867 -1197 56 -207 69 -311 69 -550 0 -287 -18 -403 -105 -670
-187 -577 -656 -1069 -1229 -1287 -456 -174 -913 -189 -1380 -46 -139 43 -163
52 -311 125 -487 240 -869 676 -1048 1195 -201 582 -131 1243 187 1763 216
353 509 620 877 800 224 110 420 168 675 200 184 23 266 24 443 5z"/>
<path d="M236 9312 c-2 -4 34 -111 81 -237 46 -127 88 -241 93 -255 5 -14 20
-54 33 -90 13 -36 75 -202 137 -370 62 -168 122 -332 135 -365 12 -33 91 -247
175 -475 84 -228 234 -633 332 -900 98 -267 237 -642 308 -835 71 -192 139
-375 150 -405 12 -30 29 -77 39 -105 21 -60 273 -744 306 -830 21 -56 266
-721 306 -830 10 -27 63 -171 118 -320 l99 -270 810 -3 c640 -2 811 1 819 10
5 7 76 195 158 418 81 223 158 432 170 465 12 33 82 222 155 420 73 198 143
387 155 420 12 33 82 222 155 420 73 198 141 383 151 410 10 28 29 79 42 115
13 36 91 245 172 465 81 220 158 427 170 460 12 33 75 204 140 380 65 176 129
349 142 385 13 36 30 81 37 100 16 44 311 844 341 925 13 33 81 220 153 415
72 195 140 380 152 410 11 30 20 60 20 67 0 10 -142 13 -695 13 l-695 0 -9
-22 c-5 -13 -31 -84 -57 -158 -25 -74 -71 -202 -100 -285 -29 -82 -69 -197
-89 -255 -41 -119 -103 -297 -181 -515 -29 -82 -71 -202 -93 -265 -22 -63 -65
-187 -96 -275 -31 -88 -73 -209 -95 -270 -22 -60 -82 -234 -135 -385 -53 -151
-113 -324 -135 -385 -22 -60 -69 -195 -106 -300 -36 -104 -93 -266 -126 -360
-33 -93 -77 -219 -98 -280 -21 -60 -64 -182 -95 -270 -31 -88 -65 -185 -75
-215 -10 -30 -55 -158 -100 -285 -45 -126 -88 -251 -96 -277 -8 -26 -18 -50
-23 -52 -5 -3 -19 22 -31 57 -12 34 -28 78 -35 97 -7 19 -40 112 -74 205 -33
94 -93 265 -135 380 -41 116 -109 307 -151 425 -42 118 -103 292 -136 385 -34
94 -69 193 -79 220 -10 28 -45 127 -78 220 -34 94 -95 266 -136 383 -42 116
-110 308 -152 425 -41 116 -102 286 -134 377 -32 91 -95 266 -139 390 -44 124
-114 322 -156 440 -42 118 -82 231 -90 250 -7 19 -41 114 -75 210 -33 96 -78
222 -99 280 l-38 105 -706 3 c-388 1 -708 -1 -711 -6z"/>
<path d="M36313 7233 c3 -1392 8 -2122 15 -2190 36 -348 113 -669 227 -953 27
-66 132 -267 173 -330 82 -125 174 -241 268 -335 368 -372 790 -577 1374 -666
126 -19 184 -22 450 -22 280 0 320 3 482 27 292 44 521 110 757 216 52 24 117
56 143 71 27 16 51 29 54 29 13 0 221 142 304 208 171 137 378 358 500 537 71
103 64 144 70 -431 l5 -519 668 -3 667 -2 0 3225 0 3225 -670 0 -670 0 0
-1697 c0 -1425 -3 -1719 -15 -1828 -45 -403 -183 -744 -435 -1080 -187 -249
-445 -464 -695 -580 -211 -98 -387 -144 -650 -171 -148 -15 -188 -16 -310 -5
-221 20 -338 45 -490 106 -303 122 -534 331 -682 615 -86 166 -134 325 -176
585 -21 128 -21 154 -24 2093 l-4 1962 -670 0 -670 0 4 -2087z"/>
</g>
</svg>
