<?xml version="1.0" standalone="no"?>
<!DOCTYPE svg PUBLIC "-//W3C//DTD SVG 20010904//EN"
 "http://www.w3.org/TR/2001/REC-SVG-20010904/DTD/svg10.dtd">
<svg version="1.0" xmlns="http://www.w3.org/2000/svg"
 width="5000.000000pt" height="1263.000000pt" viewBox="0 0 5000.000000 1263.000000"
 preserveAspectRatio="xMidYMid meet">

<g transform="translate(0.000000,1263.000000) scale(0.100000,-0.100000)"
fill="#ec1c24" stroke="none">
<path d="M3339 12315 c-585 -224 -1090 -501 -1559 -858 -557 -423 -1028 -927
-1408 -1505 -127 -193 -147 -247 -146 -392 l1 -105 106 -300 c58 -165 180
-516 272 -780 226 -652 308 -886 435 -1250 60 -170 129 -368 153 -440 25 -71
81 -233 125 -360 44 -126 151 -432 237 -680 86 -247 172 -493 190 -545 18 -52
54 -156 80 -230 26 -74 62 -178 80 -230 18 -52 54 -156 80 -230 26 -74 95
-274 155 -445 60 -170 129 -371 155 -445 26 -74 62 -178 80 -230 18 -52 54
-156 80 -230 26 -74 95 -274 155 -445 60 -170 165 -474 235 -675 288 -830 339
-975 342 -980 8 -10 276 140 448 250 635 408 1263 1031 1764 1747 24 35 47 63
50 62 3 0 51 -63 106 -141 386 -543 870 -1049 1366 -1430 272 -209 769 -510
789 -478 6 10 242 681 427 1215 24 72 60 173 78 225 18 52 54 154 78 225 69
198 354 1018 392 1125 18 52 54 156 80 230 26 74 62 178 80 230 18 52 54 156
80 230 26 74 95 275 155 445 105 301 226 649 315 905 62 179 266 766 310 890
20 58 75 215 122 350 106 307 214 617 353 1015 60 171 129 371 155 445 26 74
62 178 80 230 18 52 54 156 80 230 26 74 74 212 107 305 55 153 61 180 66 269
8 169 -11 221 -161 446 -233 348 -451 613 -752 916 -260 262 -498 465 -780
666 -435 310 -945 580 -1424 754 -99 36 -110 35 -111 -11 0 -11 -13 -70 -30
-131 -254 -950 -1147 -1583 -2120 -1504 -886 72 -1611 694 -1819 1562 -12 47
-21 94 -21 102 0 21 -11 20 -111 -19z m4131 -1300 c11 -684 5 -1076 -20 -1550
-71 -1311 -315 -2617 -707 -3785 -103 -307 -276 -759 -372 -974 -129 -286
-178 -391 -267 -566 -175 -347 -330 -616 -541 -939 l-114 -174 -96 144 c-647
975 -1155 2170 -1488 3499 -206 819 -339 1667 -405 2565 -31 434 -35 587 -34
1360 1 848 11 1309 26 1160 51 -522 139 -999 279 -1507 316 -1152 889 -2373
1641 -3497 l76 -113 90 133 c1071 1601 1758 3387 1902 4944 5 61 11 115 12
120 4 19 7 -137 18 -820z"/>
<path d="M16420 8453 c-577 -42 -1018 -171 -1446 -424 -400 -237 -783 -602
-1026 -980 -245 -380 -395 -802 -449 -1264 -17 -144 -17 -624 -1 -775 23 -202
79 -455 144 -645 312 -917 1148 -1680 2108 -1925 488 -124 1044 -141 1545 -49
491 91 947 300 1337 611 130 104 390 363 494 493 394 490 603 1039 645 1695
28 435 -38 915 -177 1287 -330 885 -1096 1592 -2008 1854 -345 99 -813 148
-1166 122z m440 -1163 c544 -66 1057 -383 1357 -842 213 -325 312 -658 313
-1050 0 -320 -58 -574 -197 -853 -262 -527 -740 -893 -1333 -1022 -117 -25
-142 -27 -370 -27 -229 0 -253 1 -370 26 -608 131 -1085 502 -1351 1053 -225
465 -248 1018 -63 1499 195 505 582 897 1084 1097 122 48 337 105 448 118 110
12 382 13 482 1z"/>
<path d="M13080 8425 c-747 -102 -1426 -471 -1919 -1040 -385 -445 -596 -907
-693 -1515 -20 -130 -23 -180 -23 -470 0 -290 3 -341 23 -475 56 -360 140
-632 287 -920 360 -708 1027 -1274 1790 -1518 190 -61 479 -121 643 -133 l92
-7 0 581 0 582 -22 5 c-13 3 -54 12 -93 21 -311 69 -597 216 -841 431 -190
168 -363 398 -463 615 -176 381 -226 812 -140 1208 159 732 711 1293 1442
1465 l117 28 0 578 0 579 -52 -1 c-29 -1 -96 -7 -148 -14z"/>
<path d="M22770 8383 c-485 -46 -870 -174 -1229 -407 -302 -196 -625 -536
-818 -859 -252 -422 -379 -859 -415 -1434 -25 -393 34 -868 152 -1223 146
-439 351 -772 679 -1101 384 -385 806 -604 1356 -703 339 -62 756 -62 1100 -1
426 75 796 244 1105 503 115 96 274 259 355 365 33 42 63 77 69 77 17 0 0
-649 -23 -833 -63 -509 -208 -858 -468 -1128 -274 -284 -636 -431 -1132 -459
-457 -26 -867 71 -1356 320 -281 143 -607 357 -883 579 l-42 35 -18 -24 c-9
-13 -39 -56 -67 -95 -27 -40 -69 -98 -93 -131 -24 -32 -144 -201 -268 -374
-177 -248 -222 -317 -212 -326 44 -40 218 -181 298 -240 248 -184 571 -375
810 -479 47 -21 103 -45 125 -55 219 -97 583 -201 885 -253 469 -82 1022 -84
1445 -6 550 102 1010 332 1398 699 191 181 327 371 462 645 190 387 307 871
345 1427 6 87 10 1156 10 2756 l0 2612 -605 0 -605 0 0 -440 c0 -242 -4 -440
-8 -440 -5 0 -28 26 -51 58 -123 166 -307 349 -486 482 -331 246 -735 398
-1182 445 -123 13 -528 19 -633 8z m815 -1153 c620 -69 1177 -457 1450 -1008
144 -293 202 -558 192 -882 -11 -351 -107 -661 -292 -945 -285 -437 -705 -715
-1235 -817 -167 -32 -453 -31 -630 1 -249 46 -500 148 -705 286 -408 274 -679
679 -782 1169 -26 121 -28 148 -28 361 0 200 3 245 23 345 98 487 376 909 775
1179 365 246 808 358 1232 311z"/>
<path d="M30446 8374 c-377 -68 -731 -232 -1057 -489 -107 -85 -378 -359 -503
-510 -269 -324 -499 -699 -647 -1055 -26 -63 -52 -116 -58 -118 -8 -3 -11 289
-11 1032 l0 1036 -605 0 -605 0 0 -2935 0 -2935 605 0 604 0 3 1138 c4 1130 4
1138 26 1257 43 226 94 380 194 580 248 498 793 1028 1362 1325 140 74 225
111 376 166 108 39 335 100 410 110 l50 7 0 703 0 704 -32 -1 c-18 0 -68 -7
-112 -15z"/>
<path d="M33355 8375 c-537 -54 -1074 -254 -1485 -553 -170 -124 -265 -205
-416 -358 -475 -477 -744 -1028 -835 -1709 -42 -309 -29 -744 31 -1052 149
-775 600 -1441 1295 -1914 388 -264 831 -427 1351 -495 165 -22 691 -26 864
-6 749 87 1380 398 1900 938 441 458 696 972 798 1614 24 153 26 189 26 485 1
371 -14 501 -89 800 -128 512 -371 937 -764 1338 -525 536 -1150 835 -1904
912 -175 18 -592 18 -772 0z m583 -1145 c437 -47 840 -240 1151 -551 751 -751
747 -1959 -10 -2706 -295 -291 -653 -469 -1074 -533 -102 -16 -415 -16 -523
-1 -732 106 -1345 628 -1560 1328 -329 1069 324 2189 1416 2427 203 45 403 57
600 36z"/>
<path d="M46571 8374 c-689 -75 -1261 -385 -1671 -907 l-85 -108 -3 456 -2
455 -604 0 c-541 0 -604 -2 -610 -16 -3 -9 -6 -1802 -6 -3985 l0 -3969 610 0
610 0 2 1503 3 1502 44 -59 c347 -466 825 -775 1403 -906 225 -52 352 -64 673
-64 325 -1 428 8 665 59 491 106 898 322 1259 670 530 511 835 1151 918 1923
23 216 22 614 -1 827 -64 584 -255 1080 -585 1525 -103 138 -107 143 -196 239
-187 202 -337 329 -548 465 -328 211 -723 346 -1144 391 -171 18 -561 18 -732
-1z m277 -1145 c257 -28 545 -121 747 -242 393 -234 672 -559 833 -972 98
-250 146 -574 123 -813 -32 -319 -100 -549 -232 -787 -318 -571 -882 -936
-1524 -985 -477 -36 -922 96 -1310 390 -98 74 -273 248 -346 345 -198 258
-336 585 -381 900 -7 50 -12 169 -12 265 0 190 12 301 50 455 178 717 746
1263 1472 1416 184 38 395 49 580 28z"/>
<path d="M37377 8263 c-11 -11 -8 -3467 3 -3683 40 -775 243 -1310 650 -1710
326 -322 756 -521 1255 -582 165 -20 625 -16 790 6 552 75 1016 301 1370 668
108 111 160 173 246 293 l64 90 3 -473 2 -472 610 0 610 0 0 2935 0 2935 -607
-2 -608 -3 -5 -1600 c-5 -1457 -7 -1609 -23 -1700 -64 -369 -211 -686 -450
-971 -100 -119 -257 -262 -375 -340 -513 -342 -1272 -367 -1734 -57 -267 179
-427 414 -514 758 -61 236 -57 109 -61 2070 -1 990 -5 1810 -8 1823 l-5 22
-604 0 c-331 0 -606 -3 -609 -7z"/>
<path d="M5335 2313 c-470 -584 -1000 -1062 -1585 -1430 l-130 -82 87 -27
c357 -109 787 -191 1238 -235 173 -17 816 -18 1000 -1 294 27 635 82 913 147
115 28 380 103 400 114 9 5 -16 26 -75 61 -585 356 -1163 875 -1629 1464 -55
68 -101 125 -104 125 -3 0 -54 -61 -115 -136z"/>
</g>
</svg>
